<?xml version="1.0" encoding="UTF-8"?>
<svg width="24px" height="27px" viewBox="0 0 24 27" version="1.1" xmlns="http://www.w3.org/2000/svg" xmlns:xlink="http://www.w3.org/1999/xlink">
    <!-- Generator: Sketch 41 (35326) - http://www.bohemiancoding.com/sketch -->
    <title>Group 14</title>
    <desc>Created with Sketch.</desc>
    <defs></defs>
    <g id="Page-1" stroke="none" stroke-width="1" fill="none" fill-rule="evenodd">
        <g id="测评结果（展开）" transform="translate(-31.000000, -4697.000000)">
            <g id="Group-4" transform="translate(1.000000, 4090.000000)">
                <g id="Group-34" transform="translate(16.000000, 586.000000)">
                    <g id="Group-33" transform="translate(0.000000, 9.000000)">
                        <g id="Group-14" transform="translate(15.000000, 13.000000)">
                            <g id="灯泡-(3)" transform="translate(4.000000, 5.000000)" fill="#FF5529">
                                <path d="M9.3802,16.424 L4.721,16.424 C4.3626,16.424 4.0554,16.736 4.0554,17.1 C4.0554,17.464 4.3626,17.776 4.721,17.776 L9.3802,17.776 C9.7386,17.776 10.0458,17.464 10.0458,17.1 C10.0458,16.684 9.7386,16.424 9.3802,16.424 Z M5.7962,19.96 C5.8986,20.584 6.4106,21 7.025,21 C7.6394,21 8.1514,20.532 8.2538,19.96 C9.073,19.908 9.6874,19.232 9.6874,18.4 L4.3626,18.4 C4.3626,19.232 5.0282,19.908 5.7962,19.96 Z M7.025,0.252 C3.5434,0.252 0.6762,3.112 0.6762,6.7 C0.6762,8.208 1.1882,9.56 2.0074,10.652 C2.7242,11.588 3.441,12.628 4.0554,13.72 L4.0554,15.852 L9.841,15.852 L9.841,13.772 C10.4554,12.732 11.2234,11.588 11.9402,10.652 C12.8106,9.56 13.2714,8.208 13.2714,6.7 C13.3738,3.164 10.5066,0.252 7.025,0.252 L7.025,0.252 Z M5.8986,3.164 C4.6186,3.164 3.5434,4.204 3.5434,5.504 C3.5434,5.712 3.3898,5.868 3.185,5.868 C2.9802,5.868 2.8266,5.712 2.8266,5.504 C2.8266,3.788 4.209,2.384 5.8986,2.384 C6.1034,2.384 6.257,2.54 6.257,2.748 C6.257,3.008 6.1034,3.164 5.8986,3.164 L5.8986,3.164 Z" id="Shape"></path>
                            </g>
                            <path d="M11,0 L11,2" id="Line" stroke="#FF5529" stroke-linecap="round"></path>
                            <path d="M0,11 L2,11" id="Line-Copy-3" stroke="#FF5529" stroke-linecap="round"></path>
                            <path d="M20,11 L22,11" id="Line-Copy-3" stroke="#FF5529" stroke-linecap="round"></path>
                            <g id="Group-13" transform="translate(11.000000, 11.500000) rotate(-315.000000) translate(-11.000000, -11.500000) translate(0.000000, 11.000000)" stroke="#FF5529" stroke-linecap="round">
                                <path d="M-3.30402372e-13,-3.23296945e-13 L2,-3.23296945e-13" id="Line-Copy-3"></path>
                                <path d="M20,7.50510765e-14 L22,7.50510765e-14" id="Line-Copy-3"></path>
                            </g>
                            <g id="Group-13" transform="translate(11.000000, 11.500000) scale(-1, 1) rotate(-315.000000) translate(-11.000000, -11.500000) translate(0.000000, 11.000000)" stroke="#FF5529" stroke-linecap="round">
                                <path d="M-3.28626015e-13,-3.23296945e-13 L2,-3.23296945e-13" id="Line-Copy-3"></path>
                                <path d="M20,7.46069873e-14 L22,7.46069873e-14" id="Line-Copy-3"></path>
                            </g>
                        </g>
                    </g>
                </g>
            </g>
        </g>
    </g>
</svg>